<svg width="28" height="28" viewBox="0 0 28 28" fill="none" xmlns="http://www.w3.org/2000/svg">
<path d="M12.833 4.66663H4.66634C4.0475 4.66663 3.45401 4.91246 3.01643 5.35004C2.57884 5.78763 2.33301 6.38112 2.33301 6.99996V23.3333C2.33301 23.9521 2.57884 24.5456 3.01643 24.9832C3.45401 25.4208 4.0475 25.6666 4.66634 25.6666H20.9997C21.6185 25.6666 22.212 25.4208 22.6496 24.9832C23.0872 24.5456 23.333 23.9521 23.333 23.3333V15.1666" stroke="#008AFF" stroke-width="2" stroke-linecap="round" stroke-linejoin="round"/>
<path d="M21.583 2.91665C22.0471 2.45252 22.6766 2.19177 23.333 2.19177C23.9894 2.19177 24.6189 2.45252 25.083 2.91665C25.5471 3.38078 25.8079 4.01027 25.8079 4.66665C25.8079 5.32302 25.5471 5.95252 25.083 6.41665L13.9997 17.5L9.33301 18.6666L10.4997 14L21.583 2.91665Z" stroke="#008AFF" stroke-width="2" stroke-linecap="round" stroke-linejoin="round"/>
</svg>
