<svg width="45" height="45" viewBox="0 0 45 45" fill="none" xmlns="http://www.w3.org/2000/svg">
<g clip-path="url(#clip0_1_6005)">
<path d="M23.2742 1.54821C19.7979 1.54821 16.3709 2.38575 13.2997 3.9775L9.70854 0.386192C9.39093 0.0684058 8.9333 -0.0658897 8.49433 0.0296837C8.05536 0.125257 7.69507 0.437587 7.53816 0.858602L5.72473 5.72431L0.859116 7.53765C0.438101 7.69456 0.125772 8.05485 0.0301982 8.49382C-0.0652871 8.93279 0.0689203 9.39033 0.386706 9.70802L3.97792 13.2993C2.38618 16.3705 1.54863 19.7975 1.54863 23.2738C1.54863 35.2534 11.2946 44.9995 23.2742 44.9995C35.2538 44.9995 45 35.2534 45 23.2738C45 11.2942 35.2538 1.54821 23.2742 1.54821ZM23.2742 30.424C27.2169 30.424 30.4245 27.2165 30.4245 23.2738C30.4245 19.3311 27.2169 16.1236 23.2742 16.1236C21.7788 16.1236 20.3899 16.5858 19.241 17.3737L15.9217 14.0544C17.9397 12.4418 20.4962 11.476 23.2742 11.476C29.7795 11.476 35.0721 16.7685 35.0721 23.2738C35.0721 29.7791 29.7795 35.0717 23.2742 35.0717C16.7689 35.0717 11.4765 29.7791 11.4765 23.2738C11.4765 20.4958 12.4422 17.9393 14.0548 15.9213L17.3741 19.2405C16.5862 20.3894 16.124 21.7784 16.124 23.2738C16.124 27.2164 19.3316 30.424 23.2742 30.424ZM24.2077 22.3403L21.1592 19.2918C21.7905 18.9552 22.5103 18.7636 23.2742 18.7636C25.7612 18.7636 27.7844 20.7869 27.7844 23.2737C27.7844 25.7606 25.7612 27.7838 23.2742 27.7838C20.7874 27.7838 18.7642 25.7606 18.7642 23.2737C18.7642 22.5098 18.9557 21.79 19.2924 21.1587L22.3408 24.2072C22.5986 24.465 22.9365 24.5938 23.2742 24.5938C23.6121 24.5938 23.9499 24.4649 24.2076 24.2072C24.7232 23.6917 24.7232 22.8559 24.2077 22.3403ZM9.29456 3.70591L13.7367 8.14814L13.1656 11.2983L8.28418 6.4169L9.29456 3.70591ZM3.70643 9.29405L6.41742 8.28375L11.2989 13.1651L8.14865 13.7363L3.70643 9.29405ZM23.2742 42.3593C12.7505 42.3593 4.18878 33.7976 4.18878 23.2738C4.18878 20.5035 4.79443 17.7694 5.95073 15.272L6.77049 16.0918C7.02025 16.3417 7.35696 16.4785 7.70387 16.4785C7.78211 16.4785 7.86087 16.4716 7.93937 16.4574L10.8484 15.9301C9.57107 18.0831 8.83641 20.5941 8.83641 23.2738C8.83641 31.2349 15.3132 37.7118 23.2743 37.7118C31.2354 37.7118 37.7123 31.2349 37.7123 23.2738C37.7123 15.3127 31.2354 8.83581 23.2743 8.83581C20.5946 8.83581 18.0836 9.57056 15.9306 10.8479L16.4579 7.93886C16.5351 7.51292 16.3985 7.07606 16.0924 6.76998L15.2726 5.95021C17.7699 4.79392 20.504 4.18827 23.2744 4.18827C33.7982 4.18827 42.3599 12.75 42.3599 23.2737C42.3598 33.7976 33.798 42.3593 23.2742 42.3593Z" fill="#008AFF"/>
</g>
<defs>
<clipPath id="clip0_1_6005">
<rect width="45" height="45" fill="white"/>
</clipPath>
</defs>
</svg>
